<svg class="icon icon--medium icon--type-star" stroke-width="1" aria-hidden="true" focusable="false" role="presentation" xmlns="http://www.w3.org/2000/svg" viewBox="0 0 16 16"><path d="M8 1c.21 0 .4.13.47.33l1.62 4.54 4.92.1a.5.5 0 01.29.9l-3.92 2.9 1.42 4.58a.5.5 0 01-.75.56L8 12.17 3.95 14.9a.5.5 0 01-.75-.56l1.42-4.58L.7 6.87a.5.5 0 01.29-.9l4.92-.1 1.62-4.54A.5.5 0 018 1zm0 2L6.74 6.52a.5.5 0 01-.46.33l-3.8.08L5.5 9.17a.5.5 0 01.18.55l-1.1 3.56 3.14-2.13a.5.5 0 01.56 0l3.15 2.13-1.1-3.56a.5.5 0 01.17-.55l3.02-2.23-3.8-.08a.5.5 0 01-.46-.33L8 2.99z"></path></svg>