<svg class="icon icon--medium icon--type-price_tag" stroke-width="1" aria-hidden="true" focusable="false" role="presentation" xmlns="http://www.w3.org/2000/svg" viewBox="0 0 16 16"><path d="M7.59 1.34a1 1 0 01.7-.29h5.66a1 1 0 011 1v5.66a1 1 0 01-.3.7L7.6 15.5a1 1 0 01-1.42 0L.52 9.83a1 1 0 010-1.42l7.07-7.07zm6.36 6.37l-7.07 7.07-5.66-5.66L8.3 2.05h5.66v5.66z" fill-rule="evenodd"></path><path d="M9.7 6.3a1 1 0 101.42-1.42 1 1 0 00-1.41 1.41zM9 7a2 2 0 102.83-2.83A2 2 0 009 7z" fill-rule="evenodd"></path></svg>